<svg width="51" height="50" viewBox="0 0 51 50" fill="none" xmlns="http://www.w3.org/2000/svg">
<path d="M14.3667 0C6.69724 0 0.477791 6.21944 0.477791 13.8889V36.1111C0.477791 43.7806 6.69724 50 14.3667 50H36.5889C44.2583 50 50.4778 43.7806 50.4778 36.1111V13.8889C50.4778 6.21944 44.2583 0 36.5889 0H14.3667ZM42.1445 5.55556C43.6778 5.55556 44.9222 6.8 44.9222 8.33333C44.9222 9.86667 43.6778 11.1111 42.1445 11.1111C40.6111 11.1111 39.3667 9.86667 39.3667 8.33333C39.3667 6.8 40.6111 5.55556 42.1445 5.55556ZM25.4778 11.1111C33.1472 11.1111 39.3667 17.3306 39.3667 25C39.3667 32.6694 33.1472 38.8889 25.4778 38.8889C17.8083 38.8889 11.5889 32.6694 11.5889 25C11.5889 17.3306 17.8083 11.1111 25.4778 11.1111ZM25.4778 16.6667C23.2677 16.6667 21.148 17.5446 19.5852 19.1074C18.0224 20.6702 17.1445 22.7899 17.1445 25C17.1445 27.2101 18.0224 29.3298 19.5852 30.8926C21.148 32.4554 23.2677 33.3333 25.4778 33.3333C27.6879 33.3333 29.8075 32.4554 31.3703 30.8926C32.9332 29.3298 33.8111 27.2101 33.8111 25C33.8111 22.7899 32.9332 20.6702 31.3703 19.1074C29.8075 17.5446 27.6879 16.6667 25.4778 16.6667Z" fill="#0A0908"/>
</svg>
