<svg width="51" height="40" viewBox="0 0 51 40" fill="none" xmlns="http://www.w3.org/2000/svg">
<path d="M50.5222 0C48.5723 1.15743 44.6601 2.73483 42.3602 3.1898C42.2927 3.2073 42.2377 3.2298 42.1727 3.2473C40.1404 1.24242 37.3555 0 34.2732 0C28.0611 0 23.0239 5.03718 23.0239 11.2493C23.0239 11.5768 22.9964 12.1792 23.0239 12.4992C14.6419 12.4992 8.26235 8.10949 3.68763 2.49984C3.19016 3.74977 2.97268 5.72464 2.97268 7.57953C2.97268 11.0818 5.71001 14.5216 9.97224 16.654C9.18729 16.8564 8.32234 17.0014 7.4224 17.0014C5.96999 17.0014 4.43259 16.619 3.02517 15.459C3.02517 15.5015 3.02517 15.5415 3.02517 15.5865C3.02517 20.4812 8.21985 23.8135 12.8396 24.741C11.9021 25.2934 10.0122 25.3484 9.0898 25.3484C8.43984 25.3484 6.13998 25.0509 5.52502 24.9359C6.80994 28.9482 11.4446 31.2031 15.8619 31.283C12.4071 33.9929 10.0097 34.9978 2.93518 34.9978H0.52533C4.99505 37.8626 10.6872 40 16.3918 40C34.9657 40 45.5225 25.8434 45.5225 12.4992C45.5225 12.2842 45.5175 11.8343 45.51 11.3818C45.51 11.3368 45.5225 11.2943 45.5225 11.2493C45.5225 11.1818 45.5025 11.1168 45.5025 11.0493C45.495 10.7093 45.4875 10.3919 45.48 10.2269C47.4549 8.80195 49.1673 7.02456 50.5222 4.99969C48.7098 5.80464 46.7649 6.3446 44.7226 6.58959C46.8074 5.33967 49.7698 2.35985 50.5222 0Z" fill="#0A0908"/>
</svg>
